<svg width="80" height="80" viewBox="0 0 80 80" fill="none" xmlns="http://www.w3.org/2000/svg"><rect width="80" height="80" rx="25" fill="#041827"/><path d="M46.9167 27.6664C48.1102 27.6664 49.1185 28.4355 49.498 29.4997H59.002C59.3815 28.4355 60.3899 27.6664 61.5834 27.6664C63.0995 27.6664 64.3334 28.9002 64.3334 30.4164C64.3334 31.9325 63.0995 33.1663 61.5834 33.1663C60.3899 33.1663 59.3815 32.3973 59.002 31.333H49.4971C49.1176 32.3973 48.1093 33.1663 46.9158 33.1663C45.3996 33.1663 44.1658 31.9325 44.1658 30.4164C44.1658 28.9002 45.4005 27.6664 46.9167 27.6664ZM61.5834 31.333C62.0885 31.333 62.5 30.9224 62.5 30.4164C62.5 29.9104 62.0885 29.4997 61.5834 29.4997C61.0783 29.4997 60.6667 29.9104 60.6667 30.4164C60.6667 30.9224 61.0783 31.333 61.5834 31.333ZM46.9167 31.333C47.4218 31.333 47.8334 30.9224 47.8334 30.4164C47.8334 29.9104 47.4218 29.4997 46.9167 29.4997C46.4116 29.4997 46 29.9104 46 30.4164C46 30.9224 46.4116 31.333 46.9167 31.333Z" fill="#00B2FF"/><path d="M39.5834 33.335V27.6664C39.5834 27.4226 39.6796 27.1898 39.8519 27.0183L43.5186 23.3517C43.69 23.1794 43.9238 23.0832 44.1667 23.0832H47.0854C47.4649 22.0189 48.4732 21.2499 49.6667 21.2499C51.1829 21.2499 52.4167 22.4837 52.4167 23.9998C52.4167 25.516 51.1829 26.7498 49.6667 26.7498C48.4732 26.7498 47.4649 25.9807 47.0854 24.9165H44.5462L41.4167 28.0459V33.335C42.4809 33.7145 43.25 34.7228 43.25 35.9163C43.25 37.4324 42.0162 38.6662 40.5 38.6662C38.9839 38.6662 37.75 37.4324 37.75 35.9163C37.75 34.7228 38.5191 33.7145 39.5834 33.335ZM49.6667 24.9165C50.1718 24.9165 50.5834 24.5058 50.5834 23.9998C50.5834 23.4938 50.1718 23.0832 49.6667 23.0832C49.1616 23.0832 48.75 23.4938 48.75 23.9998C48.75 24.5058 49.1616 24.9165 49.6667 24.9165ZM40.5 36.8329C41.0051 36.8329 41.4167 36.4223 41.4167 35.9163C41.4167 35.4103 41.0051 34.9996 40.5 34.9996C39.9949 34.9996 39.5834 35.4103 39.5834 35.9163C39.5834 36.4223 39.9949 36.8329 40.5 36.8329Z" fill="#00B2FF"/><path d="M23.0833 36.8329C23.5068 36.8329 23.9028 36.9365 24.2613 37.1088L25.8333 35.5368V26.7498C25.8333 26.5059 25.9296 26.2731 26.1019 26.1017L35.2759 16.9279C35.1036 16.5694 35 16.1734 35 15.75C35 14.2338 36.2338 13 37.75 13C39.2662 13 40.5 14.2338 40.5 15.75C40.5 17.2661 39.2662 18.4999 37.75 18.4999C37.3265 18.4999 36.9305 18.3963 36.5721 18.224L27.6667 27.1293V35.9163C27.6667 36.1601 27.5704 36.3929 27.3981 36.5644L25.5574 38.405C25.7298 38.7634 25.8333 39.1594 25.8333 39.5829C25.8333 41.099 24.5995 42.3328 23.0833 42.3328C21.5672 42.3328 20.3333 41.099 20.3333 39.5829C20.3333 38.0667 21.5672 36.8329 23.0833 36.8329ZM37.75 16.6666C38.2551 16.6666 38.6667 16.2559 38.6667 15.75C38.6667 15.244 38.2551 14.8333 37.75 14.8333C37.2449 14.8333 36.8333 15.244 36.8333 15.75C36.8333 16.2559 37.2449 16.6666 37.75 16.6666ZM23.0833 40.4995C23.5884 40.4995 24 40.0889 24 39.5829C24 39.0769 23.5884 38.6662 23.0833 38.6662C22.5783 38.6662 22.1667 39.0769 22.1667 39.5829C22.1667 40.0889 22.5783 40.4995 23.0833 40.4995Z" fill="#00B2FF"/><path d="M14.8334 26.0018V22.1665C14.8334 21.9227 14.9296 21.6899 15.1019 21.5184L21.5186 15.1019C21.69 14.9296 21.9238 14.8333 22.1667 14.8333H26.9187C27.2982 13.7691 28.3065 13 29.5 13C31.0162 13 32.25 14.2338 32.25 15.75C32.25 17.2661 31.0162 18.4999 29.5 18.4999C28.3065 18.4999 27.2982 17.7308 26.9187 16.6666H22.5462L16.6667 22.546V26.0018C17.7309 26.3813 18.5 27.3896 18.5 28.5831C18.5 30.0992 17.2662 31.333 15.75 31.333C14.2339 31.333 13 30.0992 13 28.5831C13 27.3896 13.7691 26.3813 14.8334 26.0018ZM29.5 16.6666C30.0051 16.6666 30.4167 16.2559 30.4167 15.75C30.4167 15.244 30.0051 14.8333 29.5 14.8333C28.9949 14.8333 28.5834 15.244 28.5834 15.75C28.5834 16.2559 28.9949 16.6666 29.5 16.6666ZM15.75 29.4997C16.2551 29.4997 16.6667 29.0891 16.6667 28.5831C16.6667 28.0771 16.2551 27.6664 15.75 27.6664C15.2449 27.6664 14.8334 28.0771 14.8334 28.5831C14.8334 29.0891 15.2449 29.4997 15.75 29.4997Z" fill="#00B2FF"/><path d="M27.6658 62.6688V49.4974C26.6025 49.1179 25.8334 48.1096 25.8334 46.9161C25.8334 45.4 27.0672 44.1662 28.5834 44.1662C29.7769 44.1662 30.7852 44.9352 31.1647 45.9995H40.6687C41.0482 44.9352 42.0565 44.1662 43.25 44.1662C44.4435 44.1662 45.4519 44.9352 45.8314 45.9995H51.1205L54.5259 42.5941C54.3536 42.2357 54.25 41.8397 54.25 41.4162C54.25 39.9001 55.4839 38.6663 57 38.6663C58.5162 38.6663 59.75 39.9001 59.75 41.4162C59.75 42.9324 58.5162 44.1662 57 44.1662C56.5765 44.1662 56.1805 44.0626 55.8221 43.8903L52.1481 47.5642C51.9767 47.7365 51.7429 47.8328 51.5 47.8328H45.8314C45.4519 48.897 44.4435 49.6661 43.25 49.6661C42.0565 49.6661 41.0482 48.897 40.6687 47.8328H31.1638C30.8869 48.6092 30.2755 49.2206 29.4991 49.4974V62.6688C30.5634 63.0483 31.3325 64.0566 31.3325 65.2501C31.3325 66.7662 30.0986 68 28.5825 68C27.0663 68 25.8325 66.7662 25.8325 65.2501C25.8325 64.0566 26.6015 63.0483 27.6658 62.6688ZM57 42.3329C57.5051 42.3329 57.9167 41.9222 57.9167 41.4162C57.9167 40.9102 57.5051 40.4996 57 40.4996C56.4949 40.4996 56.0834 40.9102 56.0834 41.4162C56.0834 41.9222 56.4949 42.3329 57 42.3329ZM43.25 47.8328C43.7551 47.8328 44.1667 47.4221 44.1667 46.9161C44.1667 46.4101 43.7551 45.9995 43.25 45.9995C42.7449 45.9995 42.3334 46.4101 42.3334 46.9161C42.3334 47.4221 42.7449 47.8328 43.25 47.8328ZM28.5834 66.1658C29.0885 66.1658 29.5 65.7551 29.5 65.2492C29.5 64.7432 29.0885 64.3325 28.5834 64.3325C28.0783 64.3325 27.6667 64.7432 27.6667 65.2492C27.6667 65.7551 28.0783 66.1658 28.5834 66.1658ZM28.5834 47.8328C29.0885 47.8328 29.5 47.4221 29.5 46.9161C29.5 46.4101 29.0885 45.9995 28.5834 45.9995C28.0783 45.9995 27.6667 46.4101 27.6667 46.9161C27.6667 47.4221 28.0783 47.8328 28.5834 47.8328Z" fill="#00B2FF"/><path d="M32.25 31.5017V28.5831C32.25 28.3392 32.3463 28.1064 32.5186 27.935L43.5259 16.9279C43.3536 16.5694 43.25 16.1734 43.25 15.75C43.25 14.2338 44.4839 13 46 13C47.1935 13 48.2019 13.7691 48.5814 14.8333H52.4167C52.9227 14.8333 53.3334 15.243 53.3334 15.75V18.1204L56.7388 21.5258C57.0972 21.3534 57.4932 21.2499 57.9167 21.2499C59.4329 21.2499 60.6667 22.4837 60.6667 23.9998C60.6667 25.516 59.4329 26.7498 57.9167 26.7498C56.4005 26.7498 55.1667 25.516 55.1667 23.9998C55.1667 23.5763 55.2703 23.1803 55.4426 22.8219L51.7686 19.148C51.5963 18.9766 51.5 18.7437 51.5 18.4999V16.6666H48.5814C48.2019 17.7308 47.1935 18.4999 46 18.4999C45.5765 18.4999 45.1805 18.3963 44.8221 18.224L34.0833 28.9626V31.5017C35.1476 31.8812 35.9167 32.8895 35.9167 34.083C35.9167 35.5991 34.6828 36.8329 33.1667 36.8329C31.6505 36.8329 30.4167 35.5991 30.4167 34.083C30.4167 32.8895 31.1858 31.8812 32.25 31.5017ZM57.9167 24.9165C58.4218 24.9165 58.8334 24.5058 58.8334 23.9998C58.8334 23.4938 58.4218 23.0832 57.9167 23.0832C57.4116 23.0832 57 23.4938 57 23.9998C57 24.5058 57.4116 24.9165 57.9167 24.9165ZM46 16.6666C46.5051 16.6666 46.9167 16.2559 46.9167 15.75C46.9167 15.244 46.5051 14.8333 46 14.8333C45.4949 14.8333 45.0834 15.244 45.0834 15.75C45.0834 16.2559 45.4949 16.6666 46 16.6666ZM33.1667 34.9996C33.6718 34.9996 34.0833 34.589 34.0833 34.083C34.0833 33.577 33.6718 33.1663 33.1667 33.1663C32.6616 33.1663 32.25 33.577 32.25 34.083C32.25 34.589 32.6616 34.9996 33.1667 34.9996Z" fill="#00B2FF"/><path d="M35 38.6662C36.1935 38.6662 37.2018 39.4353 37.5813 40.4995H48.3705L53.6019 35.2682C53.7733 35.0959 54.0071 34.9996 54.25 34.9996H63.9538L66.1667 32.7868V25.296L59.0946 18.224C58.7362 18.3963 58.3402 18.4999 57.9167 18.4999C56.4005 18.4999 55.1667 17.2661 55.1667 15.75C55.1667 14.2338 56.4005 13 57.9167 13C59.4328 13 60.6667 14.2338 60.6667 15.75C60.6667 16.1734 60.5631 16.5694 60.3907 16.9279L67.7314 24.2684C67.9037 24.4398 68 24.6726 68 24.9165V33.1663C68 33.4102 67.9037 33.643 67.7314 33.8144L64.9814 36.5644C64.81 36.7367 64.5762 36.8329 64.3333 36.8329H54.6295L49.3981 42.0643C49.2267 42.2366 48.9929 42.3328 48.75 42.3328H37.5813C37.2018 43.3971 36.1935 44.1661 35 44.1661C33.4838 44.1661 32.25 42.9323 32.25 41.4162C32.25 39.9001 33.4838 38.6662 35 38.6662ZM57.9167 14.8333C57.4116 14.8333 57 15.244 57 15.75C57 16.2559 57.4116 16.6666 57.9167 16.6666C58.4217 16.6666 58.8333 16.2559 58.8333 15.75C58.8333 15.244 58.4217 14.8333 57.9167 14.8333ZM35 42.3328C35.5051 42.3328 35.9167 41.9222 35.9167 41.4162C35.9167 40.9102 35.5051 40.4995 35 40.4995C34.4949 40.4995 34.0833 40.9102 34.0833 41.4162C34.0833 41.9222 34.4949 42.3328 35 42.3328Z" fill="#00B2FF"/><path d="M15.75 34.9996C16.1735 34.9996 16.5695 35.1032 16.9279 35.2755L20.3333 31.8702V26.5811C19.2691 26.2016 18.5 25.1933 18.5 23.9998C18.5 22.4837 19.7338 21.2499 21.25 21.2499C22.7662 21.2499 24 22.4837 24 23.9998C24 25.1933 23.2309 26.2016 22.1667 26.5811V32.2497C22.1667 32.4935 22.0704 32.7263 21.8981 32.8978L18.2241 36.5717C18.3964 36.9301 18.5 37.3261 18.5 37.7496C18.5 38.9431 17.7309 39.9514 16.6667 40.3309V41.0367L23.7314 48.1013C23.9038 48.2727 24 48.5056 24 48.7494V49.8347C25.0643 50.2142 25.8333 51.2225 25.8333 52.416C25.8333 53.6095 25.0643 54.6178 24 54.9973V57.1688C25.0643 57.5483 25.8333 58.5567 25.8333 59.7501C25.8333 61.2663 24.5995 62.5001 23.0833 62.5001C21.5672 62.5001 20.3333 61.2663 20.3333 59.7501C20.3333 58.5567 21.1024 57.5483 22.1667 57.1688V54.9973C21.1024 54.6178 20.3333 53.6095 20.3333 52.416C20.3333 51.2225 21.1024 50.2142 22.1667 49.8347V49.1289L15.1019 42.0643C14.9296 41.8929 14.8333 41.66 14.8333 41.4162V40.3309C13.7691 39.9514 13 38.9431 13 37.7496C13 36.2334 14.2338 34.9996 15.75 34.9996ZM21.25 24.9165C21.7551 24.9165 22.1667 24.5058 22.1667 23.9998C22.1667 23.4938 21.7551 23.0832 21.25 23.0832C20.7449 23.0832 20.3333 23.4938 20.3333 23.9998C20.3333 24.5058 20.7449 24.9165 21.25 24.9165ZM23.0833 60.6659C23.5884 60.6659 24 60.2552 24 59.7492C24 59.2432 23.5884 58.8326 23.0833 58.8326C22.5783 58.8326 22.1667 59.2432 22.1667 59.7492C22.1667 60.2552 22.5783 60.6659 23.0833 60.6659ZM23.0833 53.3327C23.5884 53.3327 24 52.922 24 52.416C24 51.91 23.5884 51.4994 23.0833 51.4994C22.5783 51.4994 22.1667 51.91 22.1667 52.416C22.1667 52.922 22.5783 53.3327 23.0833 53.3327ZM15.75 38.6662C16.2551 38.6662 16.6667 38.2556 16.6667 37.7496C16.6667 37.2436 16.2551 36.8329 15.75 36.8329C15.2449 36.8329 14.8333 37.2436 14.8333 37.7496C14.8333 38.2556 15.2449 38.6662 15.75 38.6662Z" fill="#00B2FF"/></svg>